<?xml version="1.0" encoding="utf-8" standalone="no"?>
<!DOCTYPE svg PUBLIC "-//W3C//DTD SVG 1.1//EN"
  "http://www.w3.org/Graphics/SVG/1.1/DTD/svg11.dtd">
<svg xmlns:xlink="http://www.w3.org/1999/xlink" width="460.8pt" height="345.6pt" viewBox="0 0 460.8 345.6" xmlns="http://www.w3.org/2000/svg" version="1.1">
 <metadata>
  <rdf:RDF xmlns:dc="http://purl.org/dc/elements/1.1/" xmlns:cc="http://creativecommons.org/ns#" xmlns:rdf="http://www.w3.org/1999/02/22-rdf-syntax-ns#">
   <cc:Work>
    <dc:type rdf:resource="http://purl.org/dc/dcmitype/StillImage"/>
    <dc:date>2023-12-18T01:49:26.852388</dc:date>
    <dc:format>image/svg+xml</dc:format>
    <dc:creator>
     <cc:Agent>
      <dc:title>Matplotlib v3.5.3, https://matplotlib.org/</dc:title>
     </cc:Agent>
    </dc:creator>
   </cc:Work>
  </rdf:RDF>
 </metadata>
 <defs>
  <style type="text/css">*{stroke-linejoin: round; stroke-linecap: butt}</style>
 </defs>
 <g id="figure_1">
  <g id="patch_1">
   <path d="M 0 345.6 
L 460.8 345.6 
L 460.8 0 
L 0 0 
z
" style="fill: #ffffff"/>
  </g>
  <g id="axes_1">
   <g id="patch_2">
    <path d="M 57.6 307.584 
L 414.72 307.584 
L 414.72 41.472 
L 57.6 41.472 
z
" style="fill: #ffffff"/>
   </g>
   <g id="matplotlib.axis_1">
    <g id="xtick_1">
     <g id="line2d_1">
      <defs>
       <path id="m44a00d5b80" d="M 0 0 
L 0 3.5 
" style="stroke: #000000; stroke-width: 0.8"/>
      </defs>
      <g>
       <use xlink:href="#m44a00d5b80" x="73.832727" y="307.584" style="stroke: #000000; stroke-width: 0.8"/>
      </g>
     </g>
     <g id="text_1">
      <!-- 0 -->
      <g transform="translate(70.651477 322.182437)scale(0.1 -0.1)">
       <defs>
        <path id="DejaVuSans-30" d="M 2034 4250 
Q 1547 4250 1301 3770 
Q 1056 3291 1056 2328 
Q 1056 1369 1301 889 
Q 1547 409 2034 409 
Q 2525 409 2770 889 
Q 3016 1369 3016 2328 
Q 3016 3291 2770 3770 
Q 2525 4250 2034 4250 
z
M 2034 4750 
Q 2819 4750 3233 4129 
Q 3647 3509 3647 2328 
Q 3647 1150 3233 529 
Q 2819 -91 2034 -91 
Q 1250 -91 836 529 
Q 422 1150 422 2328 
Q 422 3509 836 4129 
Q 1250 4750 2034 4750 
z
" transform="scale(0.015625)"/>
       </defs>
       <use xlink:href="#DejaVuSans-30"/>
      </g>
     </g>
    </g>
    <g id="xtick_2">
     <g id="line2d_2">
      <g>
       <use xlink:href="#m44a00d5b80" x="138.763636" y="307.584" style="stroke: #000000; stroke-width: 0.8"/>
      </g>
     </g>
     <g id="text_2">
      <!-- 20 -->
      <g transform="translate(132.401136 322.182437)scale(0.1 -0.1)">
       <defs>
        <path id="DejaVuSans-32" d="M 1228 531 
L 3431 531 
L 3431 0 
L 469 0 
L 469 531 
Q 828 903 1448 1529 
Q 2069 2156 2228 2338 
Q 2531 2678 2651 2914 
Q 2772 3150 2772 3378 
Q 2772 3750 2511 3984 
Q 2250 4219 1831 4219 
Q 1534 4219 1204 4116 
Q 875 4013 500 3803 
L 500 4441 
Q 881 4594 1212 4672 
Q 1544 4750 1819 4750 
Q 2544 4750 2975 4387 
Q 3406 4025 3406 3419 
Q 3406 3131 3298 2873 
Q 3191 2616 2906 2266 
Q 2828 2175 2409 1742 
Q 1991 1309 1228 531 
z
" transform="scale(0.015625)"/>
       </defs>
       <use xlink:href="#DejaVuSans-32"/>
       <use xlink:href="#DejaVuSans-30" x="63.623047"/>
      </g>
     </g>
    </g>
    <g id="xtick_3">
     <g id="line2d_3">
      <g>
       <use xlink:href="#m44a00d5b80" x="203.694545" y="307.584" style="stroke: #000000; stroke-width: 0.8"/>
      </g>
     </g>
     <g id="text_3">
      <!-- 40 -->
      <g transform="translate(197.332045 322.182437)scale(0.1 -0.1)">
       <defs>
        <path id="DejaVuSans-34" d="M 2419 4116 
L 825 1625 
L 2419 1625 
L 2419 4116 
z
M 2253 4666 
L 3047 4666 
L 3047 1625 
L 3713 1625 
L 3713 1100 
L 3047 1100 
L 3047 0 
L 2419 0 
L 2419 1100 
L 313 1100 
L 313 1709 
L 2253 4666 
z
" transform="scale(0.015625)"/>
       </defs>
       <use xlink:href="#DejaVuSans-34"/>
       <use xlink:href="#DejaVuSans-30" x="63.623047"/>
      </g>
     </g>
    </g>
    <g id="xtick_4">
     <g id="line2d_4">
      <g>
       <use xlink:href="#m44a00d5b80" x="268.625455" y="307.584" style="stroke: #000000; stroke-width: 0.8"/>
      </g>
     </g>
     <g id="text_4">
      <!-- 60 -->
      <g transform="translate(262.262955 322.182437)scale(0.1 -0.1)">
       <defs>
        <path id="DejaVuSans-36" d="M 2113 2584 
Q 1688 2584 1439 2293 
Q 1191 2003 1191 1497 
Q 1191 994 1439 701 
Q 1688 409 2113 409 
Q 2538 409 2786 701 
Q 3034 994 3034 1497 
Q 3034 2003 2786 2293 
Q 2538 2584 2113 2584 
z
M 3366 4563 
L 3366 3988 
Q 3128 4100 2886 4159 
Q 2644 4219 2406 4219 
Q 1781 4219 1451 3797 
Q 1122 3375 1075 2522 
Q 1259 2794 1537 2939 
Q 1816 3084 2150 3084 
Q 2853 3084 3261 2657 
Q 3669 2231 3669 1497 
Q 3669 778 3244 343 
Q 2819 -91 2113 -91 
Q 1303 -91 875 529 
Q 447 1150 447 2328 
Q 447 3434 972 4092 
Q 1497 4750 2381 4750 
Q 2619 4750 2861 4703 
Q 3103 4656 3366 4563 
z
" transform="scale(0.015625)"/>
       </defs>
       <use xlink:href="#DejaVuSans-36"/>
       <use xlink:href="#DejaVuSans-30" x="63.623047"/>
      </g>
     </g>
    </g>
    <g id="xtick_5">
     <g id="line2d_5">
      <g>
       <use xlink:href="#m44a00d5b80" x="333.556364" y="307.584" style="stroke: #000000; stroke-width: 0.8"/>
      </g>
     </g>
     <g id="text_5">
      <!-- 80 -->
      <g transform="translate(327.193864 322.182437)scale(0.1 -0.1)">
       <defs>
        <path id="DejaVuSans-38" d="M 2034 2216 
Q 1584 2216 1326 1975 
Q 1069 1734 1069 1313 
Q 1069 891 1326 650 
Q 1584 409 2034 409 
Q 2484 409 2743 651 
Q 3003 894 3003 1313 
Q 3003 1734 2745 1975 
Q 2488 2216 2034 2216 
z
M 1403 2484 
Q 997 2584 770 2862 
Q 544 3141 544 3541 
Q 544 4100 942 4425 
Q 1341 4750 2034 4750 
Q 2731 4750 3128 4425 
Q 3525 4100 3525 3541 
Q 3525 3141 3298 2862 
Q 3072 2584 2669 2484 
Q 3125 2378 3379 2068 
Q 3634 1759 3634 1313 
Q 3634 634 3220 271 
Q 2806 -91 2034 -91 
Q 1263 -91 848 271 
Q 434 634 434 1313 
Q 434 1759 690 2068 
Q 947 2378 1403 2484 
z
M 1172 3481 
Q 1172 3119 1398 2916 
Q 1625 2713 2034 2713 
Q 2441 2713 2670 2916 
Q 2900 3119 2900 3481 
Q 2900 3844 2670 4047 
Q 2441 4250 2034 4250 
Q 1625 4250 1398 4047 
Q 1172 3844 1172 3481 
z
" transform="scale(0.015625)"/>
       </defs>
       <use xlink:href="#DejaVuSans-38"/>
       <use xlink:href="#DejaVuSans-30" x="63.623047"/>
      </g>
     </g>
    </g>
    <g id="xtick_6">
     <g id="line2d_6">
      <g>
       <use xlink:href="#m44a00d5b80" x="398.487273" y="307.584" style="stroke: #000000; stroke-width: 0.8"/>
      </g>
     </g>
     <g id="text_6">
      <!-- 100 -->
      <g transform="translate(388.943523 322.182437)scale(0.1 -0.1)">
       <defs>
        <path id="DejaVuSans-31" d="M 794 531 
L 1825 531 
L 1825 4091 
L 703 3866 
L 703 4441 
L 1819 4666 
L 2450 4666 
L 2450 531 
L 3481 531 
L 3481 0 
L 794 0 
L 794 531 
z
" transform="scale(0.015625)"/>
       </defs>
       <use xlink:href="#DejaVuSans-31"/>
       <use xlink:href="#DejaVuSans-30" x="63.623047"/>
       <use xlink:href="#DejaVuSans-30" x="127.246094"/>
      </g>
     </g>
    </g>
    <g id="text_7">
     <!-- Training epoch -->
     <g transform="translate(199.617031 335.860562)scale(0.1 -0.1)">
      <defs>
       <path id="DejaVuSans-54" d="M -19 4666 
L 3928 4666 
L 3928 4134 
L 2272 4134 
L 2272 0 
L 1638 0 
L 1638 4134 
L -19 4134 
L -19 4666 
z
" transform="scale(0.015625)"/>
       <path id="DejaVuSans-72" d="M 2631 2963 
Q 2534 3019 2420 3045 
Q 2306 3072 2169 3072 
Q 1681 3072 1420 2755 
Q 1159 2438 1159 1844 
L 1159 0 
L 581 0 
L 581 3500 
L 1159 3500 
L 1159 2956 
Q 1341 3275 1631 3429 
Q 1922 3584 2338 3584 
Q 2397 3584 2469 3576 
Q 2541 3569 2628 3553 
L 2631 2963 
z
" transform="scale(0.015625)"/>
       <path id="DejaVuSans-61" d="M 2194 1759 
Q 1497 1759 1228 1600 
Q 959 1441 959 1056 
Q 959 750 1161 570 
Q 1363 391 1709 391 
Q 2188 391 2477 730 
Q 2766 1069 2766 1631 
L 2766 1759 
L 2194 1759 
z
M 3341 1997 
L 3341 0 
L 2766 0 
L 2766 531 
Q 2569 213 2275 61 
Q 1981 -91 1556 -91 
Q 1019 -91 701 211 
Q 384 513 384 1019 
Q 384 1609 779 1909 
Q 1175 2209 1959 2209 
L 2766 2209 
L 2766 2266 
Q 2766 2663 2505 2880 
Q 2244 3097 1772 3097 
Q 1472 3097 1187 3025 
Q 903 2953 641 2809 
L 641 3341 
Q 956 3463 1253 3523 
Q 1550 3584 1831 3584 
Q 2591 3584 2966 3190 
Q 3341 2797 3341 1997 
z
" transform="scale(0.015625)"/>
       <path id="DejaVuSans-69" d="M 603 3500 
L 1178 3500 
L 1178 0 
L 603 0 
L 603 3500 
z
M 603 4863 
L 1178 4863 
L 1178 4134 
L 603 4134 
L 603 4863 
z
" transform="scale(0.015625)"/>
       <path id="DejaVuSans-6e" d="M 3513 2113 
L 3513 0 
L 2938 0 
L 2938 2094 
Q 2938 2591 2744 2837 
Q 2550 3084 2163 3084 
Q 1697 3084 1428 2787 
Q 1159 2491 1159 1978 
L 1159 0 
L 581 0 
L 581 3500 
L 1159 3500 
L 1159 2956 
Q 1366 3272 1645 3428 
Q 1925 3584 2291 3584 
Q 2894 3584 3203 3211 
Q 3513 2838 3513 2113 
z
" transform="scale(0.015625)"/>
       <path id="DejaVuSans-67" d="M 2906 1791 
Q 2906 2416 2648 2759 
Q 2391 3103 1925 3103 
Q 1463 3103 1205 2759 
Q 947 2416 947 1791 
Q 947 1169 1205 825 
Q 1463 481 1925 481 
Q 2391 481 2648 825 
Q 2906 1169 2906 1791 
z
M 3481 434 
Q 3481 -459 3084 -895 
Q 2688 -1331 1869 -1331 
Q 1566 -1331 1297 -1286 
Q 1028 -1241 775 -1147 
L 775 -588 
Q 1028 -725 1275 -790 
Q 1522 -856 1778 -856 
Q 2344 -856 2625 -561 
Q 2906 -266 2906 331 
L 2906 616 
Q 2728 306 2450 153 
Q 2172 0 1784 0 
Q 1141 0 747 490 
Q 353 981 353 1791 
Q 353 2603 747 3093 
Q 1141 3584 1784 3584 
Q 2172 3584 2450 3431 
Q 2728 3278 2906 2969 
L 2906 3500 
L 3481 3500 
L 3481 434 
z
" transform="scale(0.015625)"/>
       <path id="DejaVuSans-20" transform="scale(0.015625)"/>
       <path id="DejaVuSans-65" d="M 3597 1894 
L 3597 1613 
L 953 1613 
Q 991 1019 1311 708 
Q 1631 397 2203 397 
Q 2534 397 2845 478 
Q 3156 559 3463 722 
L 3463 178 
Q 3153 47 2828 -22 
Q 2503 -91 2169 -91 
Q 1331 -91 842 396 
Q 353 884 353 1716 
Q 353 2575 817 3079 
Q 1281 3584 2069 3584 
Q 2775 3584 3186 3129 
Q 3597 2675 3597 1894 
z
M 3022 2063 
Q 3016 2534 2758 2815 
Q 2500 3097 2075 3097 
Q 1594 3097 1305 2825 
Q 1016 2553 972 2059 
L 3022 2063 
z
" transform="scale(0.015625)"/>
       <path id="DejaVuSans-70" d="M 1159 525 
L 1159 -1331 
L 581 -1331 
L 581 3500 
L 1159 3500 
L 1159 2969 
Q 1341 3281 1617 3432 
Q 1894 3584 2278 3584 
Q 2916 3584 3314 3078 
Q 3713 2572 3713 1747 
Q 3713 922 3314 415 
Q 2916 -91 2278 -91 
Q 1894 -91 1617 61 
Q 1341 213 1159 525 
z
M 3116 1747 
Q 3116 2381 2855 2742 
Q 2594 3103 2138 3103 
Q 1681 3103 1420 2742 
Q 1159 2381 1159 1747 
Q 1159 1113 1420 752 
Q 1681 391 2138 391 
Q 2594 391 2855 752 
Q 3116 1113 3116 1747 
z
" transform="scale(0.015625)"/>
       <path id="DejaVuSans-6f" d="M 1959 3097 
Q 1497 3097 1228 2736 
Q 959 2375 959 1747 
Q 959 1119 1226 758 
Q 1494 397 1959 397 
Q 2419 397 2687 759 
Q 2956 1122 2956 1747 
Q 2956 2369 2687 2733 
Q 2419 3097 1959 3097 
z
M 1959 3584 
Q 2709 3584 3137 3096 
Q 3566 2609 3566 1747 
Q 3566 888 3137 398 
Q 2709 -91 1959 -91 
Q 1206 -91 779 398 
Q 353 888 353 1747 
Q 353 2609 779 3096 
Q 1206 3584 1959 3584 
z
" transform="scale(0.015625)"/>
       <path id="DejaVuSans-63" d="M 3122 3366 
L 3122 2828 
Q 2878 2963 2633 3030 
Q 2388 3097 2138 3097 
Q 1578 3097 1268 2742 
Q 959 2388 959 1747 
Q 959 1106 1268 751 
Q 1578 397 2138 397 
Q 2388 397 2633 464 
Q 2878 531 3122 666 
L 3122 134 
Q 2881 22 2623 -34 
Q 2366 -91 2075 -91 
Q 1284 -91 818 406 
Q 353 903 353 1747 
Q 353 2603 823 3093 
Q 1294 3584 2113 3584 
Q 2378 3584 2631 3529 
Q 2884 3475 3122 3366 
z
" transform="scale(0.015625)"/>
       <path id="DejaVuSans-68" d="M 3513 2113 
L 3513 0 
L 2938 0 
L 2938 2094 
Q 2938 2591 2744 2837 
Q 2550 3084 2163 3084 
Q 1697 3084 1428 2787 
Q 1159 2491 1159 1978 
L 1159 0 
L 581 0 
L 581 4863 
L 1159 4863 
L 1159 2956 
Q 1366 3272 1645 3428 
Q 1925 3584 2291 3584 
Q 2894 3584 3203 3211 
Q 3513 2838 3513 2113 
z
" transform="scale(0.015625)"/>
      </defs>
      <use xlink:href="#DejaVuSans-54"/>
      <use xlink:href="#DejaVuSans-72" x="46.333984"/>
      <use xlink:href="#DejaVuSans-61" x="87.447266"/>
      <use xlink:href="#DejaVuSans-69" x="148.726562"/>
      <use xlink:href="#DejaVuSans-6e" x="176.509766"/>
      <use xlink:href="#DejaVuSans-69" x="239.888672"/>
      <use xlink:href="#DejaVuSans-6e" x="267.671875"/>
      <use xlink:href="#DejaVuSans-67" x="331.050781"/>
      <use xlink:href="#DejaVuSans-20" x="394.527344"/>
      <use xlink:href="#DejaVuSans-65" x="426.314453"/>
      <use xlink:href="#DejaVuSans-70" x="487.837891"/>
      <use xlink:href="#DejaVuSans-6f" x="551.314453"/>
      <use xlink:href="#DejaVuSans-63" x="612.496094"/>
      <use xlink:href="#DejaVuSans-68" x="667.476562"/>
     </g>
    </g>
   </g>
   <g id="matplotlib.axis_2">
    <g id="ytick_1">
     <g id="line2d_7">
      <defs>
       <path id="m7d8f9a8ab9" d="M 0 0 
L -3.5 0 
" style="stroke: #000000; stroke-width: 0.8"/>
      </defs>
      <g>
       <use xlink:href="#m7d8f9a8ab9" x="57.6" y="284.089863" style="stroke: #000000; stroke-width: 0.8"/>
      </g>
     </g>
     <g id="text_8">
      <!-- 0.70 -->
      <g transform="translate(28.334375 287.889081)scale(0.1 -0.1)">
       <defs>
        <path id="DejaVuSans-2e" d="M 684 794 
L 1344 794 
L 1344 0 
L 684 0 
L 684 794 
z
" transform="scale(0.015625)"/>
        <path id="DejaVuSans-37" d="M 525 4666 
L 3525 4666 
L 3525 4397 
L 1831 0 
L 1172 0 
L 2766 4134 
L 525 4134 
L 525 4666 
z
" transform="scale(0.015625)"/>
       </defs>
       <use xlink:href="#DejaVuSans-30"/>
       <use xlink:href="#DejaVuSans-2e" x="63.623047"/>
       <use xlink:href="#DejaVuSans-37" x="95.410156"/>
       <use xlink:href="#DejaVuSans-30" x="159.033203"/>
      </g>
     </g>
    </g>
    <g id="ytick_2">
     <g id="line2d_8">
      <g>
       <use xlink:href="#m7d8f9a8ab9" x="57.6" y="233.494438" style="stroke: #000000; stroke-width: 0.8"/>
      </g>
     </g>
     <g id="text_9">
      <!-- 0.75 -->
      <g transform="translate(28.334375 237.293657)scale(0.1 -0.1)">
       <defs>
        <path id="DejaVuSans-35" d="M 691 4666 
L 3169 4666 
L 3169 4134 
L 1269 4134 
L 1269 2991 
Q 1406 3038 1543 3061 
Q 1681 3084 1819 3084 
Q 2600 3084 3056 2656 
Q 3513 2228 3513 1497 
Q 3513 744 3044 326 
Q 2575 -91 1722 -91 
Q 1428 -91 1123 -41 
Q 819 9 494 109 
L 494 744 
Q 775 591 1075 516 
Q 1375 441 1709 441 
Q 2250 441 2565 725 
Q 2881 1009 2881 1497 
Q 2881 1984 2565 2268 
Q 2250 2553 1709 2553 
Q 1456 2553 1204 2497 
Q 953 2441 691 2322 
L 691 4666 
z
" transform="scale(0.015625)"/>
       </defs>
       <use xlink:href="#DejaVuSans-30"/>
       <use xlink:href="#DejaVuSans-2e" x="63.623047"/>
       <use xlink:href="#DejaVuSans-37" x="95.410156"/>
       <use xlink:href="#DejaVuSans-35" x="159.033203"/>
      </g>
     </g>
    </g>
    <g id="ytick_3">
     <g id="line2d_9">
      <g>
       <use xlink:href="#m7d8f9a8ab9" x="57.6" y="182.899013" style="stroke: #000000; stroke-width: 0.8"/>
      </g>
     </g>
     <g id="text_10">
      <!-- 0.80 -->
      <g transform="translate(28.334375 186.698232)scale(0.1 -0.1)">
       <use xlink:href="#DejaVuSans-30"/>
       <use xlink:href="#DejaVuSans-2e" x="63.623047"/>
       <use xlink:href="#DejaVuSans-38" x="95.410156"/>
       <use xlink:href="#DejaVuSans-30" x="159.033203"/>
      </g>
     </g>
    </g>
    <g id="ytick_4">
     <g id="line2d_10">
      <g>
       <use xlink:href="#m7d8f9a8ab9" x="57.6" y="132.303588" style="stroke: #000000; stroke-width: 0.8"/>
      </g>
     </g>
     <g id="text_11">
      <!-- 0.85 -->
      <g transform="translate(28.334375 136.102807)scale(0.1 -0.1)">
       <use xlink:href="#DejaVuSans-30"/>
       <use xlink:href="#DejaVuSans-2e" x="63.623047"/>
       <use xlink:href="#DejaVuSans-38" x="95.410156"/>
       <use xlink:href="#DejaVuSans-35" x="159.033203"/>
      </g>
     </g>
    </g>
    <g id="ytick_5">
     <g id="line2d_11">
      <g>
       <use xlink:href="#m7d8f9a8ab9" x="57.6" y="81.708163" style="stroke: #000000; stroke-width: 0.8"/>
      </g>
     </g>
     <g id="text_12">
      <!-- 0.90 -->
      <g transform="translate(28.334375 85.507382)scale(0.1 -0.1)">
       <defs>
        <path id="DejaVuSans-39" d="M 703 97 
L 703 672 
Q 941 559 1184 500 
Q 1428 441 1663 441 
Q 2288 441 2617 861 
Q 2947 1281 2994 2138 
Q 2813 1869 2534 1725 
Q 2256 1581 1919 1581 
Q 1219 1581 811 2004 
Q 403 2428 403 3163 
Q 403 3881 828 4315 
Q 1253 4750 1959 4750 
Q 2769 4750 3195 4129 
Q 3622 3509 3622 2328 
Q 3622 1225 3098 567 
Q 2575 -91 1691 -91 
Q 1453 -91 1209 -44 
Q 966 3 703 97 
z
M 1959 2075 
Q 2384 2075 2632 2365 
Q 2881 2656 2881 3163 
Q 2881 3666 2632 3958 
Q 2384 4250 1959 4250 
Q 1534 4250 1286 3958 
Q 1038 3666 1038 3163 
Q 1038 2656 1286 2365 
Q 1534 2075 1959 2075 
z
" transform="scale(0.015625)"/>
       </defs>
       <use xlink:href="#DejaVuSans-30"/>
       <use xlink:href="#DejaVuSans-2e" x="63.623047"/>
       <use xlink:href="#DejaVuSans-39" x="95.410156"/>
       <use xlink:href="#DejaVuSans-30" x="159.033203"/>
      </g>
     </g>
    </g>
    <g id="text_13">
     <!-- Top1 accuracy -->
     <g transform="translate(22.254687 210.295187)rotate(-90)scale(0.1 -0.1)">
      <defs>
       <path id="DejaVuSans-75" d="M 544 1381 
L 544 3500 
L 1119 3500 
L 1119 1403 
Q 1119 906 1312 657 
Q 1506 409 1894 409 
Q 2359 409 2629 706 
Q 2900 1003 2900 1516 
L 2900 3500 
L 3475 3500 
L 3475 0 
L 2900 0 
L 2900 538 
Q 2691 219 2414 64 
Q 2138 -91 1772 -91 
Q 1169 -91 856 284 
Q 544 659 544 1381 
z
M 1991 3584 
L 1991 3584 
z
" transform="scale(0.015625)"/>
       <path id="DejaVuSans-79" d="M 2059 -325 
Q 1816 -950 1584 -1140 
Q 1353 -1331 966 -1331 
L 506 -1331 
L 506 -850 
L 844 -850 
Q 1081 -850 1212 -737 
Q 1344 -625 1503 -206 
L 1606 56 
L 191 3500 
L 800 3500 
L 1894 763 
L 2988 3500 
L 3597 3500 
L 2059 -325 
z
" transform="scale(0.015625)"/>
      </defs>
      <use xlink:href="#DejaVuSans-54"/>
      <use xlink:href="#DejaVuSans-6f" x="44.083984"/>
      <use xlink:href="#DejaVuSans-70" x="105.265625"/>
      <use xlink:href="#DejaVuSans-31" x="168.742188"/>
      <use xlink:href="#DejaVuSans-20" x="232.365234"/>
      <use xlink:href="#DejaVuSans-61" x="264.152344"/>
      <use xlink:href="#DejaVuSans-63" x="325.431641"/>
      <use xlink:href="#DejaVuSans-63" x="380.412109"/>
      <use xlink:href="#DejaVuSans-75" x="435.392578"/>
      <use xlink:href="#DejaVuSans-72" x="498.771484"/>
      <use xlink:href="#DejaVuSans-61" x="539.884766"/>
      <use xlink:href="#DejaVuSans-63" x="601.164062"/>
      <use xlink:href="#DejaVuSans-79" x="656.144531"/>
     </g>
    </g>
   </g>
   <g id="line2d_12">
    <path d="M 73.832727 154.038371 
L 77.079273 149.635557 
L 80.325818 127.019402 
L 83.572364 116.512756 
L 86.818909 129.421673 
L 90.065455 138.227301 
L 93.312 115.712336 
L 96.558545 112.009763 
L 99.805091 104.404259 
L 103.051636 111.609048 
L 106.298182 129.821377 
L 109.544727 129.72221 
L 112.791273 118.514311 
L 116.037818 115.911682 
L 119.284364 111.909584 
L 122.530909 113.710781 
L 125.777455 121.316286 
L 129.024 114.411022 
L 132.270545 116.812281 
L 135.517091 111.109165 
L 138.763636 103.102945 
L 142.010182 135.326159 
L 145.256727 127.019402 
L 148.503273 109.80785 
L 151.749818 112.810183 
L 154.996364 130.42245 
L 158.242909 115.4118 
L 161.489455 109.80785 
L 164.736 144.731848 
L 167.982545 146.933761 
L 171.229091 109.307968 
L 174.475636 122.716767 
L 177.722182 124.818501 
L 180.968727 124.718322 
L 184.215273 139.929331 
L 187.461818 78.386068 
L 190.708364 79.886728 
L 193.954909 81.687925 
L 197.201455 77.585648 
L 200.448 83.68948 
L 203.694545 79.886728 
L 206.941091 83.889838 
L 210.187636 79.487024 
L 213.434182 80.987685 
L 216.680727 84.890616 
L 219.927273 86.090739 
L 223.173818 84.690258 
L 226.420364 104.504438 
L 229.666909 90.494565 
L 232.913455 86.491455 
L 236.16 89.093072 
L 239.406545 88.793547 
L 242.653091 87.69259 
L 245.899636 92.996003 
L 249.146182 90.594744 
L 252.392727 92.295762 
L 255.639273 96.398039 
L 258.885818 90.594744 
L 262.132364 90.294207 
L 265.378909 89.99367 
L 268.625455 96.598397 
L 271.872 99.901266 
L 275.118545 87.892948 
L 278.365091 82.788882 
L 281.611636 82.388166 
L 284.858182 89.893491 
L 288.104727 96.898934 
L 291.351273 95.49744 
L 294.597818 92.095404 
L 297.844364 93.196361 
L 301.090909 75.183377 
L 304.337455 71.781341 
L 307.584 71.380625 
L 310.830545 72.281224 
L 314.077091 72.481582 
L 317.323636 72.481582 
L 320.570182 71.781341 
L 323.816727 73.782896 
L 327.063273 71.280446 
L 330.309818 70.080323 
L 333.556364 75.183377 
L 336.802909 72.882297 
L 340.049455 73.181822 
L 343.296 74.082421 
L 346.542545 71.580983 
L 349.789091 71.781341 
L 353.035636 72.581761 
L 356.282182 72.882297 
L 359.528727 71.681162 
L 362.775273 70.980921 
L 366.021818 72.281224 
L 369.268364 71.781341 
L 372.514909 71.0811 
L 375.761455 71.181279 
L 379.008 71.0811 
L 382.254545 71.781341 
L 385.501091 72.882297 
L 388.747636 71.981699 
L 391.994182 70.880742 
L 395.240727 72.381403 
" clip-path="url(#pf6248135fe)" style="fill: none; stroke: #ffff00; stroke-width: 1.5; stroke-linecap: square"/>
   </g>
   <g id="LineCollection_1">
    <path d="M 73.832727 53.568 
L 398.487273 53.568 
" clip-path="url(#pf6248135fe)" style="fill: none; stroke: #ff0000; stroke-width: 1.5"/>
   </g>
   <g id="line2d_13">
    <path d="M 73.832727 295.488 
L 77.079273 276.224298 
L 80.325818 230.141985 
L 83.572364 213.080196 
L 86.818909 202.822479 
L 90.065455 177.230302 
L 93.312 170.550694 
L 96.558545 237.497548 
L 99.805091 248.104373 
L 103.051636 153.638667 
L 106.298182 144.381728 
L 109.544727 164.195908 
L 112.791273 148.160194 
L 116.037818 264.190682 
L 119.284364 156.090521 
L 122.530909 161.893816 
L 125.777455 159.567439 
L 129.024 215.206216 
L 132.270545 155.115041 
L 135.517091 171.575757 
L 138.763636 165.121805 
L 142.010182 151.462052 
L 145.256727 163.519953 
L 148.503273 142.605829 
L 151.749818 150.260916 
L 154.996364 165.822045 
L 158.242909 148.259361 
L 161.489455 250.031047 
L 164.736 134.099726 
L 167.982545 137.251821 
L 171.229091 175.704344 
L 174.475636 125.218205 
L 177.722182 165.021626 
L 180.968727 186.261585 
L 184.215273 150.136452 
L 187.461818 159.042258 
L 190.708364 163.270012 
L 193.954909 136.075983 
L 197.201455 172.526951 
L 200.448 122.140991 
L 203.694545 168.698901 
L 206.941091 138.628016 
L 210.187636 162.469592 
L 213.434182 141.254931 
L 216.680727 197.344007 
L 219.927273 203.173612 
L 223.173818 140.72975 
L 226.420364 126.569103 
L 229.666909 150.510858 
L 232.913455 130.847452 
L 236.16 137.302416 
L 239.406545 178.856439 
L 242.653091 115.787218 
L 245.899636 167.198241 
L 249.146182 158.092076 
L 252.392727 131.173286 
L 255.639273 168.248602 
L 258.885818 165.696569 
L 262.132364 146.633224 
L 265.378909 146.783999 
L 268.625455 66.126796 
L 271.872 65.051138 
L 275.118545 65.652211 
L 278.365091 61.973924 
L 281.611636 65.57733 
L 284.858182 70.655087 
L 288.104727 73.632122 
L 291.351273 68.653532 
L 294.597818 67.577873 
L 297.844364 68.879187 
L 301.090909 76.68505 
L 304.337455 71.230863 
L 307.584 74.032837 
L 310.830545 83.038823 
L 314.077091 76.434096 
L 317.323636 71.005207 
L 320.570182 80.112384 
L 323.816727 73.55724 
L 327.063273 75.358438 
L 330.309818 82.889061 
L 333.556364 84.940199 
L 336.802909 75.609391 
L 340.049455 89.918789 
L 343.296 89.519085 
L 346.542545 78.636009 
L 349.789091 89.794324 
L 353.035636 83.939422 
L 356.282182 78.836367 
L 359.528727 91.969927 
L 362.775273 74.98302 
L 366.021818 81.188042 
L 369.268364 88.092294 
L 372.514909 86.365978 
L 375.761455 78.160412 
L 379.008 82.663405 
L 382.254545 97.99989 
L 385.501091 71.730746 
L 388.747636 80.812624 
L 391.994182 82.513643 
L 395.240727 115.286323 
" clip-path="url(#pf6248135fe)" style="fill: none; stroke: #0000ff; stroke-width: 1.5; stroke-linecap: square"/>
   </g>
   <g id="patch_3">
    <path d="M 57.6 307.584 
L 57.6 41.472 
" style="fill: none; stroke: #000000; stroke-width: 0.8; stroke-linejoin: miter; stroke-linecap: square"/>
   </g>
   <g id="patch_4">
    <path d="M 414.72 307.584 
L 414.72 41.472 
" style="fill: none; stroke: #000000; stroke-width: 0.8; stroke-linejoin: miter; stroke-linecap: square"/>
   </g>
   <g id="patch_5">
    <path d="M 57.6 307.584 
L 414.72 307.584 
" style="fill: none; stroke: #000000; stroke-width: 0.8; stroke-linejoin: miter; stroke-linecap: square"/>
   </g>
   <g id="patch_6">
    <path d="M 57.6 41.472 
L 414.72 41.472 
" style="fill: none; stroke: #000000; stroke-width: 0.8; stroke-linejoin: miter; stroke-linecap: square"/>
   </g>
   <g id="legend_1">
    <g id="patch_7">
     <path d="M 203.8075 302.584 
L 407.72 302.584 
Q 409.72 302.584 409.72 300.584 
L 409.72 257.549625 
Q 409.72 255.549625 407.72 255.549625 
L 203.8075 255.549625 
Q 201.8075 255.549625 201.8075 257.549625 
L 201.8075 300.584 
Q 201.8075 302.584 203.8075 302.584 
z
" style="fill: #ffffff; opacity: 0.8; stroke: #cccccc; stroke-linejoin: miter"/>
    </g>
    <g id="line2d_14">
     <path d="M 205.8075 263.648062 
L 215.8075 263.648062 
L 225.8075 263.648062 
" style="fill: none; stroke: #ffff00; stroke-width: 1.5; stroke-linecap: square"/>
    </g>
    <g id="text_14">
     <!-- object recognition, self-supervised -->
     <g transform="translate(233.8075 267.148062)scale(0.1 -0.1)">
      <defs>
       <path id="DejaVuSans-62" d="M 3116 1747 
Q 3116 2381 2855 2742 
Q 2594 3103 2138 3103 
Q 1681 3103 1420 2742 
Q 1159 2381 1159 1747 
Q 1159 1113 1420 752 
Q 1681 391 2138 391 
Q 2594 391 2855 752 
Q 3116 1113 3116 1747 
z
M 1159 2969 
Q 1341 3281 1617 3432 
Q 1894 3584 2278 3584 
Q 2916 3584 3314 3078 
Q 3713 2572 3713 1747 
Q 3713 922 3314 415 
Q 2916 -91 2278 -91 
Q 1894 -91 1617 61 
Q 1341 213 1159 525 
L 1159 0 
L 581 0 
L 581 4863 
L 1159 4863 
L 1159 2969 
z
" transform="scale(0.015625)"/>
       <path id="DejaVuSans-6a" d="M 603 3500 
L 1178 3500 
L 1178 -63 
Q 1178 -731 923 -1031 
Q 669 -1331 103 -1331 
L -116 -1331 
L -116 -844 
L 38 -844 
Q 366 -844 484 -692 
Q 603 -541 603 -63 
L 603 3500 
z
M 603 4863 
L 1178 4863 
L 1178 4134 
L 603 4134 
L 603 4863 
z
" transform="scale(0.015625)"/>
       <path id="DejaVuSans-74" d="M 1172 4494 
L 1172 3500 
L 2356 3500 
L 2356 3053 
L 1172 3053 
L 1172 1153 
Q 1172 725 1289 603 
Q 1406 481 1766 481 
L 2356 481 
L 2356 0 
L 1766 0 
Q 1100 0 847 248 
Q 594 497 594 1153 
L 594 3053 
L 172 3053 
L 172 3500 
L 594 3500 
L 594 4494 
L 1172 4494 
z
" transform="scale(0.015625)"/>
       <path id="DejaVuSans-2c" d="M 750 794 
L 1409 794 
L 1409 256 
L 897 -744 
L 494 -744 
L 750 256 
L 750 794 
z
" transform="scale(0.015625)"/>
       <path id="DejaVuSans-73" d="M 2834 3397 
L 2834 2853 
Q 2591 2978 2328 3040 
Q 2066 3103 1784 3103 
Q 1356 3103 1142 2972 
Q 928 2841 928 2578 
Q 928 2378 1081 2264 
Q 1234 2150 1697 2047 
L 1894 2003 
Q 2506 1872 2764 1633 
Q 3022 1394 3022 966 
Q 3022 478 2636 193 
Q 2250 -91 1575 -91 
Q 1294 -91 989 -36 
Q 684 19 347 128 
L 347 722 
Q 666 556 975 473 
Q 1284 391 1588 391 
Q 1994 391 2212 530 
Q 2431 669 2431 922 
Q 2431 1156 2273 1281 
Q 2116 1406 1581 1522 
L 1381 1569 
Q 847 1681 609 1914 
Q 372 2147 372 2553 
Q 372 3047 722 3315 
Q 1072 3584 1716 3584 
Q 2034 3584 2315 3537 
Q 2597 3491 2834 3397 
z
" transform="scale(0.015625)"/>
       <path id="DejaVuSans-6c" d="M 603 4863 
L 1178 4863 
L 1178 0 
L 603 0 
L 603 4863 
z
" transform="scale(0.015625)"/>
       <path id="DejaVuSans-66" d="M 2375 4863 
L 2375 4384 
L 1825 4384 
Q 1516 4384 1395 4259 
Q 1275 4134 1275 3809 
L 1275 3500 
L 2222 3500 
L 2222 3053 
L 1275 3053 
L 1275 0 
L 697 0 
L 697 3053 
L 147 3053 
L 147 3500 
L 697 3500 
L 697 3744 
Q 697 4328 969 4595 
Q 1241 4863 1831 4863 
L 2375 4863 
z
" transform="scale(0.015625)"/>
       <path id="DejaVuSans-2d" d="M 313 2009 
L 1997 2009 
L 1997 1497 
L 313 1497 
L 313 2009 
z
" transform="scale(0.015625)"/>
       <path id="DejaVuSans-76" d="M 191 3500 
L 800 3500 
L 1894 563 
L 2988 3500 
L 3597 3500 
L 2284 0 
L 1503 0 
L 191 3500 
z
" transform="scale(0.015625)"/>
       <path id="DejaVuSans-64" d="M 2906 2969 
L 2906 4863 
L 3481 4863 
L 3481 0 
L 2906 0 
L 2906 525 
Q 2725 213 2448 61 
Q 2172 -91 1784 -91 
Q 1150 -91 751 415 
Q 353 922 353 1747 
Q 353 2572 751 3078 
Q 1150 3584 1784 3584 
Q 2172 3584 2448 3432 
Q 2725 3281 2906 2969 
z
M 947 1747 
Q 947 1113 1208 752 
Q 1469 391 1925 391 
Q 2381 391 2643 752 
Q 2906 1113 2906 1747 
Q 2906 2381 2643 2742 
Q 2381 3103 1925 3103 
Q 1469 3103 1208 2742 
Q 947 2381 947 1747 
z
" transform="scale(0.015625)"/>
      </defs>
      <use xlink:href="#DejaVuSans-6f"/>
      <use xlink:href="#DejaVuSans-62" x="61.181641"/>
      <use xlink:href="#DejaVuSans-6a" x="124.658203"/>
      <use xlink:href="#DejaVuSans-65" x="152.441406"/>
      <use xlink:href="#DejaVuSans-63" x="213.964844"/>
      <use xlink:href="#DejaVuSans-74" x="268.945312"/>
      <use xlink:href="#DejaVuSans-20" x="308.154297"/>
      <use xlink:href="#DejaVuSans-72" x="339.941406"/>
      <use xlink:href="#DejaVuSans-65" x="378.804688"/>
      <use xlink:href="#DejaVuSans-63" x="440.328125"/>
      <use xlink:href="#DejaVuSans-6f" x="495.308594"/>
      <use xlink:href="#DejaVuSans-67" x="556.490234"/>
      <use xlink:href="#DejaVuSans-6e" x="619.966797"/>
      <use xlink:href="#DejaVuSans-69" x="683.345703"/>
      <use xlink:href="#DejaVuSans-74" x="711.128906"/>
      <use xlink:href="#DejaVuSans-69" x="750.337891"/>
      <use xlink:href="#DejaVuSans-6f" x="778.121094"/>
      <use xlink:href="#DejaVuSans-6e" x="839.302734"/>
      <use xlink:href="#DejaVuSans-2c" x="902.681641"/>
      <use xlink:href="#DejaVuSans-20" x="934.46875"/>
      <use xlink:href="#DejaVuSans-73" x="966.255859"/>
      <use xlink:href="#DejaVuSans-65" x="1018.355469"/>
      <use xlink:href="#DejaVuSans-6c" x="1079.878906"/>
      <use xlink:href="#DejaVuSans-66" x="1107.662109"/>
      <use xlink:href="#DejaVuSans-2d" x="1137.367188"/>
      <use xlink:href="#DejaVuSans-73" x="1173.451172"/>
      <use xlink:href="#DejaVuSans-75" x="1225.550781"/>
      <use xlink:href="#DejaVuSans-70" x="1288.929688"/>
      <use xlink:href="#DejaVuSans-65" x="1352.40625"/>
      <use xlink:href="#DejaVuSans-72" x="1413.929688"/>
      <use xlink:href="#DejaVuSans-76" x="1455.042969"/>
      <use xlink:href="#DejaVuSans-69" x="1514.222656"/>
      <use xlink:href="#DejaVuSans-73" x="1542.005859"/>
      <use xlink:href="#DejaVuSans-65" x="1594.105469"/>
      <use xlink:href="#DejaVuSans-64" x="1655.628906"/>
     </g>
    </g>
    <g id="line2d_15">
     <path d="M 205.8075 278.326188 
L 225.8075 278.326188 
" style="fill: none; stroke: #ff0000; stroke-width: 1.5"/>
    </g>
    <g id="text_15">
     <!-- object recognition, supervised -->
     <g transform="translate(233.8075 281.826188)scale(0.1 -0.1)">
      <use xlink:href="#DejaVuSans-6f"/>
      <use xlink:href="#DejaVuSans-62" x="61.181641"/>
      <use xlink:href="#DejaVuSans-6a" x="124.658203"/>
      <use xlink:href="#DejaVuSans-65" x="152.441406"/>
      <use xlink:href="#DejaVuSans-63" x="213.964844"/>
      <use xlink:href="#DejaVuSans-74" x="268.945312"/>
      <use xlink:href="#DejaVuSans-20" x="308.154297"/>
      <use xlink:href="#DejaVuSans-72" x="339.941406"/>
      <use xlink:href="#DejaVuSans-65" x="378.804688"/>
      <use xlink:href="#DejaVuSans-63" x="440.328125"/>
      <use xlink:href="#DejaVuSans-6f" x="495.308594"/>
      <use xlink:href="#DejaVuSans-67" x="556.490234"/>
      <use xlink:href="#DejaVuSans-6e" x="619.966797"/>
      <use xlink:href="#DejaVuSans-69" x="683.345703"/>
      <use xlink:href="#DejaVuSans-74" x="711.128906"/>
      <use xlink:href="#DejaVuSans-69" x="750.337891"/>
      <use xlink:href="#DejaVuSans-6f" x="778.121094"/>
      <use xlink:href="#DejaVuSans-6e" x="839.302734"/>
      <use xlink:href="#DejaVuSans-2c" x="902.681641"/>
      <use xlink:href="#DejaVuSans-20" x="934.46875"/>
      <use xlink:href="#DejaVuSans-73" x="966.255859"/>
      <use xlink:href="#DejaVuSans-75" x="1018.355469"/>
      <use xlink:href="#DejaVuSans-70" x="1081.734375"/>
      <use xlink:href="#DejaVuSans-65" x="1145.210938"/>
      <use xlink:href="#DejaVuSans-72" x="1206.734375"/>
      <use xlink:href="#DejaVuSans-76" x="1247.847656"/>
      <use xlink:href="#DejaVuSans-69" x="1307.027344"/>
      <use xlink:href="#DejaVuSans-73" x="1334.810547"/>
      <use xlink:href="#DejaVuSans-65" x="1386.910156"/>
      <use xlink:href="#DejaVuSans-64" x="1448.433594"/>
     </g>
    </g>
    <g id="line2d_16">
     <path d="M 205.8075 293.004312 
L 215.8075 293.004312 
L 225.8075 293.004312 
" style="fill: none; stroke: #0000ff; stroke-width: 1.5; stroke-linecap: square"/>
    </g>
    <g id="text_16">
     <!-- rotation prediction -->
     <g transform="translate(233.8075 296.504312)scale(0.1 -0.1)">
      <use xlink:href="#DejaVuSans-72"/>
      <use xlink:href="#DejaVuSans-6f" x="38.863281"/>
      <use xlink:href="#DejaVuSans-74" x="100.044922"/>
      <use xlink:href="#DejaVuSans-61" x="139.253906"/>
      <use xlink:href="#DejaVuSans-74" x="200.533203"/>
      <use xlink:href="#DejaVuSans-69" x="239.742188"/>
      <use xlink:href="#DejaVuSans-6f" x="267.525391"/>
      <use xlink:href="#DejaVuSans-6e" x="328.707031"/>
      <use xlink:href="#DejaVuSans-20" x="392.085938"/>
      <use xlink:href="#DejaVuSans-70" x="423.873047"/>
      <use xlink:href="#DejaVuSans-72" x="487.349609"/>
      <use xlink:href="#DejaVuSans-65" x="526.212891"/>
      <use xlink:href="#DejaVuSans-64" x="587.736328"/>
      <use xlink:href="#DejaVuSans-69" x="651.212891"/>
      <use xlink:href="#DejaVuSans-63" x="678.996094"/>
      <use xlink:href="#DejaVuSans-74" x="733.976562"/>
      <use xlink:href="#DejaVuSans-69" x="773.185547"/>
      <use xlink:href="#DejaVuSans-6f" x="800.96875"/>
      <use xlink:href="#DejaVuSans-6e" x="862.150391"/>
     </g>
    </g>
   </g>
  </g>
 </g>
 <defs>
  <clipPath id="pf6248135fe">
   <rect x="57.6" y="41.472" width="357.12" height="266.112"/>
  </clipPath>
 </defs>
</svg>
